# xmcd
#
# Track frame offsets:
#	150
#	11565
#	21392
#	33915
#	44105
#	55255
#	64805
#	78280
#	86405
#	98980
#	110430
#	124080
#	134332
#	144130
#	163255
#	175930
#	189467
#	201255
#	214805
#	226980
#	239780
#	252455
#	264980
#	272717
#	286205
#
# Disc length: 3976 seconds
#
# Revision: 3
# Processed by: cddbd v1.5.2PL0 Copyright (c) Steve Scherf et al.
# Submitted via: EasyCDDAExtractor 11.1.0.1
#
DISCID=710f8619
DTITLE=Various Artist - The Country Music Story - Volume 3
DYEAR=1991
DGENRE=Country
TTITLE0=Sammi Smith - Help Me Make It Though The Night
TTITLE1=Ned Miller - From A Jack To A King
TTITLE2=Claude King - Wolverton Mountain
TTITLE3=Anita Bryant - Paper Roses
TTITLE4=Bobby Edwards - You're The Reason
TTITLE5=Willie Nelson - Building Heartaches
TTITLE6=Lynn Anderson - Rose Garden
TTITLE7=Johnny Cash - Counrtry Boy
TTITLE8=Johnny Ray - Just Walking In The Rain
TTITLE9=Jerry Lee Lewis - I Believe In You
TTITLE10=Patti Page - Changing Partners
TTITLE11=Freddy Fender - Before The Next Teardrop Falls
TTITLE12=Hank Locklin - Please Help Me, I'm Falling
TTITLE13=Bobby Bare - Me And Bobby McGee
TTITLE14=Faron Young - Four In The Morning
TTITLE15=Anne Murray - What About me
TTITLE16=Johnny Cash - You're The Nearest Thing To Heaven
TTITLE17=Cristy Lane - Shake Me I Rattle
TTITLE18=Ronnie Milsap - Let's Go Get Stoned
TTITLE19=Bubby Helms - Fraulein
TTITLE20=George Jones - I Love You Because
TTITLE21=Billie Jo Spears - '57 Chevrolet
TTITLE22=Roger Miller - Do Waka Do
TTITLE23=Jimmy Dean - Big Bad John
TTITLE24=George Jones - Window Up Above
EXTD=
EXTT0=
EXTT1=
EXTT2=
EXTT3=
EXTT4=
EXTT5=
EXTT6=
EXTT7=
EXTT8=
EXTT9=
EXTT10=
EXTT11=
EXTT12=
EXTT13=
EXTT14=
EXTT15=
EXTT16=
EXTT17=
EXTT18=
EXTT19=
EXTT20=
EXTT21=
EXTT22=
EXTT23=
EXTT24=
PLAYORDER=
